SplineFontDB: 3.0
FontName: iconFont
FullName: iconFont
FamilyName: iconFont
Weight: Regular
Copyright: Copyright (c) 2017, Developer
UComments: "2017-7-7: Created with FontForge (http://fontforge.org)"
Version: 001.000
ItalicAngle: 0
UnderlinePosition: -100
UnderlineWidth: 50
Ascent: 800
Descent: 200
InvalidEm: 0
LayerCount: 2
Layer: 0 0 "Back" 1
Layer: 1 0 "Fore" 0
XUID: [1021 402 389677309 3246]
StyleMap: 0x0000
FSType: 0
OS2Version: 0
OS2_WeightWidthSlopeOnly: 0
OS2_UseTypoMetrics: 1
CreationTime: 1499437664
ModificationTime: 1550091457
PfmFamily: 17
TTFWeight: 400
TTFWidth: 5
LineGap: 90
VLineGap: 90
Panose: 2 0 5 3 0 0 0 0 0 0
OS2TypoAscent: 0
OS2TypoAOffset: 1
OS2TypoDescent: 0
OS2TypoDOffset: 1
OS2TypoLinegap: 90
OS2WinAscent: 0
OS2WinAOffset: 1
OS2WinDescent: 0
OS2WinDOffset: 1
HheadAscent: 0
HheadAOffset: 1
HheadDescent: 0
HheadDOffset: 1
OS2SubXSize: 650
OS2SubYSize: 699
OS2SubXOff: 0
OS2SubYOff: 140
OS2SupXSize: 650
OS2SupYSize: 699
OS2SupXOff: 0
OS2SupYOff: 479
OS2StrikeYSize: 49
OS2StrikeYPos: 258
OS2Vendor: 'PfEd'
MarkAttachClasses: 1
DEI: 91125
Encoding: UnicodeBmp
UnicodeInterp: none
NameList: AGL For New Fonts
DisplaySize: -48
AntiAlias: 1
FitToEm: 0
WinInfo: 57288 28 10
BeginPrivate: 0
EndPrivate
BeginChars: 65536 24

StartChar: facebook
Encoding: 57344 57344 0
Width: 1000
VWidth: 0
HStem: 324 72<370 420 514 588> 478 78<495 594.001>
VStem: 420 94<72 324 396 475.681>
LayerCount: 2
Fore
SplineSet
368 396 m 1
 420 396 l 1
 420 444 l 2
 420 466 420 498 436 520 c 0
 452 542 476 556 514 556 c 0
 578 556 604 546 604 546 c 1
 592 472 l 1
 592 472 572 478 552 478 c 0
 532 478 514 470 514 452 c 2
 514 396 l 1
 594 396 l 1
 588 324 l 1
 514 324 l 1
 514 72 l 1
 420 72 l 1
 420 324 l 1
 370 324 l 1
 370 396 l 1
 368 396 l 1
EndSplineSet
EndChar

StartChar: googleplus
Encoding: 57345 57345 1
Width: 1000
VWidth: 0
HStem: 70 26<352.173 473.421> 254 12<376.939 425.54> 302 48<556 614 662 720> 532 24<484 532>
VStem: 252 54<125.384 211.705> 406 56<293.686 336.141> 516 38<124.254 216.194> 614 48<244 302 350 408>
LayerCount: 2
Fore
SplineSet
720 350 m 1
 720 302 l 1
 662 302 l 1
 662 244 l 1
 614 244 l 1
 614 302 l 1
 556 302 l 1
 556 350 l 1
 614 350 l 1
 614 408 l 1
 662 408 l 1
 662 350 l 1
 720 350 l 1
502 278 m 0
 542 250 554 224 554 178 c 0
 554 124 502 70 406 70 c 0
 322 70 252 104 252 158 c 0
 252 212 316 266 400 266 c 0
 408 266 418 266 426 266 c 1
 416 278 406 292 406 308 c 0
 406 318 410 328 414 336 c 1
 410 336 404 336 400 336 c 0
 332 336 286 386 286 446 c 0
 286 504 348 556 416 556 c 2
 566 556 l 1
 532 532 l 1
 484 532 l 2
 516 520 532 484 532 446 c 0
 532 414 514 388 490 368 c 0
 466 348 462 340 462 324 c 0
 462 312 488 288 502 278 c 0
420 354 m 0
 460 352 486 394 478 444 c 0
 472 494 434 534 396 536 c 0
 358 538 332 498 338 448 c 0
 344 398 382 356 420 354 c 0
406 96 m 0
 486 96 516 130 516 174 c 0
 516 180 516 184 514 190 c 0
 508 214 486 226 454 248 c 0
 442 252 430 254 416 254 c 0
 358 254 306 220 306 176 c 0
 306 132 348 96 406 96 c 0
EndSplineSet
EndChar

StartChar: instagram
Encoding: 57346 57346 2
Width: 1000
VWidth: 0
HStem: 72 48<297.279 674.79> 182 46<429.79 542.096> 364 56<606 672> 400 158<428.543 543.205> 502 56<590 670.625>
VStem: 242 48<127.279 364> 352 48<256.904 363.623> 572 44<257.34 363.623> 672 56<420 500.625> 678 50<125.21 364>
LayerCount: 2
Fore
SplineSet
682 166 m 2xe740
 678 166 l 1
 678 364 l 1
 606 364 l 2
 612 348 616 332 616 314 c 0
 616 242 558 182 484 182 c 0
 412 182 352 240 352 314 c 0
 352 332 356 348 362 364 c 2
 290 364 l 1
 290 166 l 2
 290 140 310 120 336 120 c 2
 636 120 l 2
 662 120 682 140 682 166 c 2xe740
416 364 m 0
 406 350 400 332 400 314 c 0
 400 266 438 228 486 228 c 0
 534 228 572 266 572 314 c 0
 572 332 566 350 556 364 c 0xe7
 540 386 514 400 486 400 c 0xd7
 456 400 432 386 416 364 c 0
662 502 m 1xef80
 590 502 l 1
 590 420 l 1
 672 420 l 1
 672 492 l 1
 672 502 l 1
 662 502 l 1xef80
634 558 m 2
 686 558 728 516 728 464 c 2xef80
 728 364 l 1
 728 166 l 2xef40
 728 114 686 72 634 72 c 2
 336 72 l 2
 284 72 242 114 242 166 c 2
 242 364 l 1
 242 464 l 2
 242 516 284 558 336 558 c 2
 634 558 l 2
EndSplineSet
EndChar

StartChar: linkedin
Encoding: 57347 57347 3
Width: 1000
VWidth: 0
HStem: 110 304<254 348 406 512 620 680.816> 336 80<535.12 641.418> 452 104<252.944 346.854>
VStem: 242 116<463.313 545.305> 254 94<110 414> 406 106<110.202 297.716 366 414> 620 106<110 325.641>
LayerCount: 2
Fore
SplineSet
728 110 m 1xa6
 620 110 l 1xa6
 620 266 l 2
 620 308 604 336 566 336 c 0x66
 538 336 522 318 514 298 c 0
 512 292 512 282 512 274 c 2
 512 110 l 1
 406 110 l 1
 406 110 408 388 406 414 c 2
 512 414 l 1xa6
 512 366 l 2
 518 386 552 416 606 416 c 0x66
 674 416 726 372 726 278 c 2
 726 110 l 1
 728 110 l 1xa6
300 452 m 1
 266 452 242 476 242 504 c 0
 242 534 264 556 300 556 c 0
 334 556 356 534 358 504 c 0x36
 358 476 336 452 300 452 c 1
254 110 m 1xae
 254 414 l 1
 348 414 l 1
 348 110 l 1
 254 110 l 1xae
EndSplineSet
EndChar

StartChar: pinterest
Encoding: 57348 57348 4
Width: 1000
VWidth: 0
HStem: 74 98<454.689 583.903> 382 56<429.14 494.097> 478 80<406.246 576.77>
VStem: 244 78<256.673 398.985> 368 50<261.102 372.412> 496 94<261.032 379.985> 650 76<244.135 407.829>
LayerCount: 2
Fore
SplineSet
486 558 m 0
 620 558 726 454 726 318 c 0
 726 182 618 74 484 74 c 0
 460 74 438 78 416 84 c 1
 424 98 434 118 440 136 c 0
 444 146 458 202 458 202 c 2
 468 186 492 172 518 172 c 0
 598 172 650 242 650 338 c 0
 650 410 588 478 496 478 c 0
 380 478 322 396 322 326 c 0
 322 286 338 248 372 234 c 0
 378 232 382 234 384 240 c 0
 384 244 386 256 388 260 c 0
 390 266 388 268 384 274 c 0
 374 286 368 300 368 322 c 0
 368 384 414 438 488 438 c 0
 554 438 590 398 590 344 c 0
 590 274 558 214 512 214 c 0
 486 214 468 234 474 260 c 0
 482 290 496 324 496 346 c 0
 496 366 486 382 464 382 c 0
 438 382 418 356 418 320 c 0
 418 298 426 282 426 282 c 1
 426 282 398 170 394 150 c 0
 390 132 390 110 390 94 c 1
 304 132 244 216 244 316 c 0
 244 450 352 558 486 558 c 0
EndSplineSet
EndChar

StartChar: twitter
Encoding: 57349 57349 5
Width: 1000
VWidth: 0
HStem: 94 44<333.387 360.939>
LayerCount: 2
Fore
SplineSet
730 442 m 1
 716 422 700 404 680 388 c 0
 680 384 680 380 680 376 c 0
 680 244 580 92 396 94 c 0
 338 94 286 110 242 138 c 1
 250 136 258 136 266 136 c 0
 312 136 356 152 390 178 c 1
 346 180 308 208 296 248 c 1
 302 246 308 246 314 246 c 0
 322 246 332 248 340 250 c 1
 294 260 260 300 260 348 c 2
 260 350 l 2
 274 344 290 338 306 338 c 1
 280 356 262 388 262 422 c 0
 262 440 268 458 276 472 c 1
 326 412 400 372 482 368 c 1
 480 374 480 382 480 390 c 0
 480 446 524 490 580 490 c 0
 608 490 634 478 652 458 c 0
 676 462 696 470 716 482 c 1
 708 458 692 438 672 426 c 1
 692 428 712 434 730 442 c 1
EndSplineSet
EndChar

StartChar: vimeo
Encoding: 57350 57350 6
Width: 1000
VWidth: 0
HStem: 94 150<446 521.727> 408 106<558 660>
VStem: 590 138<343.645 406.975>
LayerCount: 2
Fore
SplineSet
728 416 m 0
 726 368 692 304 628 222 c 0
 562 136 506 94 460 94 c 0
 432 94 408 120 388 172 c 0
 374 220 362 268 348 316 c 0
 334 368 318 394 302 394 c 0
 298 394 286 386 264 372 c 2
 244 400 l 2
 268 422 292 442 314 464 c 0
 346 492 370 506 386 508 c 0
 424 512 446 486 456 430 c 0
 466 370 472 334 476 318 c 0
 486 268 498 244 512 244 c 0
 522 244 538 260 558 292 c 0
 578 324 590 348 590 366 c 0
 592 394 582 408 558 408 c 0
 546 408 534 406 522 400 c 1
 546 478 592 516 660 514 c 0
 708 510 732 478 728 416 c 0
EndSplineSet
EndChar

StartChar: youtube
Encoding: 57351 57351 7
Width: 1000
VWidth: 0
HStem: 142 342<326 701.442>
VStem: 242 178<226 403.876>
LayerCount: 2
Fore
SplineSet
730 228 m 2
 730 144 646 144 644 142 c 2
 326 142 l 2
 242 142 242 226 242 226 c 1
 242 400 l 2
 242 484 326 484 326 484 c 1
 646 484 l 2
 730 484 730 400 730 400 c 1
 730 228 l 2
580 314 m 1
 420 406 l 1
 420 220 l 1
 580 314 l 1
EndSplineSet
EndChar

StartChar: arrow-down
Encoding: 57352 57352 8
Width: 1654
VWidth: 0
Flags: W
LayerCount: 2
Fore
SplineSet
843.75 -168.75 m 1
 31.25 659.375 l 1
 140.625 768.75 l 1
 843.75 65.625 l 1
 1515.625 768.75 l 1
 1625 659.375 l 1
 843.75 -168.75 l 1
EndSplineSet
EndChar

StartChar: arrow-left
Encoding: 57353 57353 9
Width: 476
VWidth: 0
Flags: W
LayerCount: 2
Fore
SplineSet
405.127929688 -184.615234375 m 1
 20.5126953125 282.051757812 l 2
 7.6923828125 297.435546875 7.6923828125 317.948242188 20.5126953125 330.76953125 c 2
 405.127929688 800 l 1
 466.666992188 748.717773438 l 1
 100 307.692382812 l 1
 464.102539062 -135.897460938 l 1
 405.127929688 -184.615234375 l 1
EndSplineSet
EndChar

StartChar: arrow-right
Encoding: 57354 57354 10
Width: 492
VWidth: 0
Flags: W
LayerCount: 2
Fore
SplineSet
82.0517578125 -184.615234375 m 1
 23.0771484375 -135.897460938 l 1
 387.1796875 307.692382812 l 1
 20.5126953125 748.717773438 l 1
 82.0517578125 800 l 1
 466.666992188 333.333007812 l 2
 479.487304688 317.948242188 479.487304688 297.435546875 466.666992188 284.615234375 c 2
 82.0517578125 -184.615234375 l 1
EndSplineSet
EndChar

StartChar: arrow-right-2
Encoding: 57355 57355 11
Width: 542
VWidth: 0
Flags: W
LayerCount: 2
Fore
SplineSet
65.2626953125 747.368164062 m 1
 4.3212890625 697.180664062 l 1
 331.411132812 300 l 1
 4.3212890625 -97.1806640625 l 1
 65.2626953125 -147.368164062 l 1
 126.205078125 -197.555664062 l 1
 494.625976562 249.8125 l 1
 535.95703125 300 l 1
 494.625976562 350.1875 l 1
 126.205078125 797.555664062 l 1
 65.2626953125 747.368164062 l 1
EndSplineSet
EndChar

StartChar: chat
Encoding: 57356 57356 12
Width: 1222
VWidth: 0
Flags: W
HStem: -45.6523 56.5215<578.928 941.305 1130.43 1160.2> 150 60.8691<59.3092 123.913 382.608 452.806> 169.565 65.2168<675.892 737.152 849.805 911.065 1001.98 1063.24> 343.479 65.2168<197.388 430.873> 371.739 58.6953<578.928 1160.2> 539.131 65.2168<197.411 780.827> 739.131 60.8691<59.3092 917.264>
VStem: 0 58.6953<210.927 739.073> 123.913 58.6953<34.7822 150> 521.739 56.5215<11.4138 371.627> 673.913 65.2178<171.544 232.804> 847.826 65.2178<171.544 232.804> 917.392 60.8691<505.666 739.073> 1000 65.2178<171.544 232.804> 1073.91 56.5215<-100 -45.6523> 1160.87 56.5225<13.1547 371.627>
LayerCount: 2
Fore
SplineSet
423.913085938 210.869140625 m 2xc7ff
 441.3046875 210.869140625 454.34765625 197.826171875 454.34765625 178.260742188 c 0
 454.34765625 160.869140625 439.130859375 147.826171875 423.913085938 147.826171875 c 2
 382.608398438 147.826171875 l 1
 173.913085938 -60.869140625 l 2
 167.391601562 -67.3916015625 160.869140625 -69.5654296875 152.173828125 -69.5654296875 c 0
 147.826171875 -69.5654296875 145.65234375 -69.5654296875 141.3046875 -67.3916015625 c 0
 130.434570312 -63.0439453125 123.913085938 -52.173828125 123.913085938 -39.130859375 c 2
 123.913085938 150 l 1
 69.5654296875 150 l 2
 32.6083984375 150 0 182.608398438 0 221.739257812 c 2
 0 728.260742188 l 2
 0 767.391601562 32.6083984375 800 69.5654296875 800 c 2
 908.6953125 800 l 2
 945.65234375 800 978.260742188 767.391601562 978.260742188 728.260742188 c 2
 978.260742188 534.782226562 l 2
 978.260742188 517.391601562 963.043945312 504.34765625 947.826171875 504.34765625 c 0
 930.434570312 504.34765625 917.391601562 517.391601562 917.391601562 534.782226562 c 2
 917.391601562 728.260742188 l 2
 917.391601562 734.782226562 913.043945312 739.130859375 906.521484375 739.130859375 c 2
 69.5654296875 739.130859375 l 2
 63.0439453125 739.130859375 58.6953125 734.782226562 58.6953125 728.260742188 c 2
 58.6953125 221.739257812 l 2
 58.6953125 215.217773438 63.0439453125 210.869140625 69.5654296875 210.869140625 c 2
 154.34765625 210.869140625 l 2
 169.565429688 210.869140625 180.434570312 200 182.608398438 184.782226562 c 0
 182.608398438 182.608398438 182.608398438 34.7822265625 182.608398438 34.7822265625 c 1
 347.826171875 202.173828125 l 2
 354.34765625 206.521484375 360.869140625 210.869140625 367.391601562 210.869140625 c 0
 369.565429688 210.869140625 423.913085938 210.869140625 423.913085938 210.869140625 c 2xc7ff
1150 430.434570312 m 2x8fff
 1186.95605469 430.434570312 1217.39160156 400 1217.39160156 360.869140625 c 2
 1217.39160156 23.9130859375 l 2
 1217.39160156 -15.2177734375 1186.95605469 -45.65234375 1150 -45.65234375 c 2
 1130.43457031 -45.65234375 l 1
 1130.43457031 -171.739257812 l 2
 1130.43457031 -182.608398438 1123.91308594 -193.478515625 1113.04394531 -197.826171875 c 0
 1108.6953125 -200 1106.52148438 -200 1102.17382812 -200 c 0
 1095.65234375 -200 1086.95605469 -197.826171875 1082.60839844 -191.3046875 c 2
 941.3046875 -45.65234375 l 1
 589.130859375 -45.65234375 l 2
 552.173828125 -45.65234375 521.739257812 -15.2177734375 521.739257812 23.9130859375 c 2
 521.739257812 360.869140625 l 2
 521.739257812 400 552.173828125 430.434570312 589.130859375 430.434570312 c 2
 1150 430.434570312 l 2x8fff
1160.86914062 23.9130859375 m 1
 1160.86914062 360.869140625 l 2
 1160.86914062 367.391601562 1156.52148438 371.739257812 1150 371.739257812 c 2
 589.130859375 371.739257812 l 2
 582.608398438 371.739257812 578.260742188 367.391601562 578.260742188 360.869140625 c 2
 578.260742188 21.7392578125 l 2
 578.260742188 15.2177734375 582.608398438 10.869140625 589.130859375 10.869140625 c 2
 950 10.869140625 l 2
 958.6953125 10.869140625 965.217773438 8.6953125 969.565429688 4.34765625 c 0
 971.739257812 4.34765625 971.739257812 4.34765625 971.739257812 4.34765625 c 1
 1073.91308594 -100 l 1
 1073.91308594 -100 1073.91308594 -13.0439453125 1073.91308594 -13.0439453125 c 2
 1076.08691406 2.173828125 1086.95605469 13.0439453125 1102.17382812 13.0439453125 c 2
 1150 13.0439453125 l 2
 1156.52148438 13.0439453125 1160.86914062 17.3916015625 1160.86914062 23.9130859375 c 1
847.826171875 202.173828125 m 0
 847.826171875 220.18359375 862.42578125 234.782226562 880.434570312 234.782226562 c 0
 898.444335938 234.782226562 913.043945312 220.18359375 913.043945312 202.173828125 c 0
 913.043945312 184.165039062 898.444335938 169.565429688 880.434570312 169.565429688 c 0xa7ff
 862.42578125 169.565429688 847.826171875 184.165039062 847.826171875 202.173828125 c 0
782.608398438 571.739257812 m 0
 782.608398438 554.34765625 769.565429688 539.130859375 752.173828125 539.130859375 c 2
 223.913085938 539.130859375 l 2
 208.6953125 539.130859375 195.65234375 554.34765625 195.65234375 571.739257812 c 0
 195.65234375 589.130859375 208.6953125 604.34765625 223.913085938 604.34765625 c 2
 754.34765625 604.34765625 l 2
 769.565429688 604.34765625 782.608398438 589.130859375 782.608398438 571.739257812 c 0
221.739257812 408.6953125 m 2x97ff
 406.521484375 408.6953125 l 2
 419.565429688 408.6953125 432.608398438 393.478515625 432.608398438 376.086914062 c 0
 432.608398438 358.6953125 421.739257812 343.478515625 406.521484375 343.478515625 c 2
 221.739257812 343.478515625 l 2
 208.6953125 343.478515625 195.65234375 358.6953125 195.65234375 376.086914062 c 0
 195.65234375 393.478515625 208.6953125 408.6953125 221.739257812 408.6953125 c 2x97ff
673.913085938 202.173828125 m 0
 673.913085938 220.18359375 688.512695312 234.782226562 706.521484375 234.782226562 c 0
 724.53125 234.782226562 739.130859375 220.18359375 739.130859375 202.173828125 c 0
 739.130859375 184.165039062 724.53125 169.565429688 706.521484375 169.565429688 c 0xa7ff
 688.512695312 169.565429688 673.913085938 184.165039062 673.913085938 202.173828125 c 0
1000 202.173828125 m 0
 1000 220.18359375 1014.59960938 234.782226562 1032.60839844 234.782226562 c 0
 1050.61816406 234.782226562 1065.21777344 220.18359375 1065.21777344 202.173828125 c 0
 1065.21777344 184.165039062 1050.61816406 169.565429688 1032.60839844 169.565429688 c 0
 1014.59960938 169.565429688 1000 184.165039062 1000 202.173828125 c 0
EndSplineSet
EndChar

StartChar: check-solid
Encoding: 57357 57357 13
Width: 1000
VWidth: 0
LayerCount: 2
Fore
SplineSet
472.284179688 -19.421875 m 2
 446.291992188 -45.8857421875 412.078125 -59.23046875 377.864257812 -59.23046875 c 0
 343.76171875 -59.23046875 309.658203125 -45.8857421875 283.553710938 -19.421875 c 2
 39.1708984375 229.157226562 l 2
 -13.0380859375 282.197265625 -13.0380859375 368.260742188 39.0595703125 421.301757812 c 0
 91.046875 474.455078125 175.692382812 474.455078125 227.790039062 421.415039062 c 2
 377.864257812 268.852539062 l 1
 772.099609375 670.219726562 l 2
 824.307617188 723.259765625 908.838867188 723.259765625 960.938476562 670.219726562 c 0
 1013.03808594 617.06640625 1013.03808594 531.001953125 960.831054688 477.961914062 c 2
 472.284179688 -19.421875 l 2
EndSplineSet
EndChar

StartChar: mail
Encoding: 57358 57358 14
Width: 1398
VWidth: 0
Flags: W
HStem: -200 55.5557<105.556 1275.05> 744.444 55.5557<89.67 1299.47>
VStem: 0 55.5557<-99.4751 675.488> 1333.33 61.1113<-99.4751 675.488>
LayerCount: 2
Fore
SplineSet
1244.44433594 800 m 2
 1322.22265625 800 1388.88867188 738.888671875 1394.44433594 661.111328125 c 2
 1394.44433594 -61.111328125 l 2
 1394.44433594 -138.888671875 1327.77734375 -200 1250 -200 c 2
 144.444335938 -200 l 2
 66.6669921875 -200 0 -138.888671875 0 -61.111328125 c 2
 0 661.111328125 l 2
 0 738.888671875 66.6669921875 800 144.444335938 800 c 2
 1244.44433594 800 l 2
144.444335938 744.444335938 m 2
 122.22265625 744.444335938 105.555664062 738.888671875 88.888671875 727.77734375 c 2
 700 277.77734375 l 1
 1300 727.77734375 l 2
 1288.88867188 738.888671875 1266.66699219 744.444335938 1250 744.444335938 c 2
 144.444335938 744.444335938 l 2
55.5556640625 -61.111328125 m 2
 55.5556640625 -72.22265625 61.111328125 -88.888671875 66.6669921875 -100 c 2
 505.555664062 350 l 1
 55.5556640625 677.77734375 l 2
 55.5556640625 672.22265625 55.5556640625 666.666992188 55.5556640625 661.111328125 c 2
 55.5556640625 -61.111328125 l 2
66.6669921875 -100 m 2
 72.22265625 -116.666992188 83.3330078125 -127.77734375 94.4443359375 -127.77734375 c 2
 66.6669921875 -100 l 2
1244.44433594 -144.444335938 m 2
 1261.11132812 -144.444335938 1272.22265625 -144.444335938 1277.77734375 -133.333007812 c 2
 838.888671875 311.111328125 l 1
 866.666992188 338.888671875 l 1
 694.444335938 211.111328125 l 1
 527.77734375 333.333007812 l 1
 550 311.111328125 l 1
 105.555664062 -138.888671875 l 2
 116.666992188 -138.888671875 133.333007812 -144.444335938 144.444335938 -144.444335938 c 2
 1244.44433594 -144.444335938 l 2
1333.33300781 -61.111328125 m 2
 1333.33300781 661.111328125 l 2
 1333.33300781 666.666992188 1333.33300781 677.77734375 1327.77734375 677.77734375 c 2
 883.333007812 344.444335938 l 1
 1322.22265625 -100 l 2
 1327.77734375 -88.888671875 1333.33300781 -72.22265625 1333.33300781 -61.111328125 c 2
EndSplineSet
EndChar

StartChar: search
Encoding: 57359 57359 15
Width: 1000
VWidth: 0
HStem: -16.4561 63.291<308.364 538.676> 717.722 63.291<303.741 533.409>
VStem: 18.9873 63.291<268.876 494.413> 759.494 63.291<266.591 494.413>
LayerCount: 2
Fore
SplineSet
974.68359375 -130.379882812 m 1
 930.379882812 -174.68359375 l 1
 677.21484375 78.4814453125 l 2
 607.594726562 21.5185546875 518.987304688 -16.4560546875 417.721679688 -16.4560546875 c 0
 196.202148438 -16.4560546875 18.9873046875 160.759765625 18.9873046875 382.278320312 c 0
 18.9873046875 603.797851562 202.53125 781.012695312 424.05078125 781.012695312 c 0
 645.569335938 781.012695312 822.78515625 603.797851562 822.78515625 382.278320312 c 0
 822.78515625 281.012695312 784.810546875 192.405273438 721.518554688 122.78515625 c 2
 974.68359375 -130.379882812 l 1
82.2783203125 382.278320312 m 0
 82.2783203125 192.405273438 240.505859375 46.8349609375 424.05078125 46.8349609375 c 0
 607.594726562 46.8349609375 759.494140625 198.734375 759.494140625 382.278320312 c 0
 759.494140625 565.823242188 601.265625 717.721679688 417.721679688 717.721679688 c 0
 234.176757812 717.721679688 82.2783203125 565.823242188 82.2783203125 382.278320312 c 0
EndSplineSet
EndChar

StartChar: location
Encoding: 57360 57360 16
Width: 776
VWidth: 0
Flags: W
HStem: 581.25 218.75<307.365 465.362>
VStem: -0 225.379<347.759 501.675> 547.349 225.379<347.759 501.675>
LayerCount: 2
Fore
SplineSet
346.65625 -179.82421875 m 0
 54.2724609375 231.580078125 -0 273.802734375 -0 425 c 0
 -0 632.107421875 172.98046875 800 386.36328125 800 c 0
 599.747070312 800 772.727539062 632.107421875 772.727539062 425 c 0
 772.727539062 273.802734375 718.455078125 231.580078125 426.0703125 -179.82421875 c 0
 406.8828125 -206.7265625 365.841796875 -206.724609375 346.65625 -179.82421875 c 0
386.36328125 268.75 m 0
 475.2734375 268.75 547.348632812 338.705078125 547.348632812 425 c 0
 547.348632812 511.294921875 475.2734375 581.25 386.36328125 581.25 c 0
 297.454101562 581.25 225.37890625 511.294921875 225.37890625 425 c 0
 225.37890625 338.705078125 297.454101562 268.75 386.36328125 268.75 c 0
EndSplineSet
EndChar

StartChar: user-solid
Encoding: 57361 57361 17
Width: 880
VWidth: 0
Flags: W
HStem: -194.924 431.472<168.623 364.26 521.003 714.625> 297.462 497.462<344.94 538.309>
VStem: 192.894 497.462<449.508 642.878>
LayerCount: 2
Fore
SplineSet
441.624023438 297.461914062 m 0
 304.568359375 297.461914062 192.893554688 409.13671875 192.893554688 546.193359375 c 0
 192.893554688 683.249023438 304.568359375 794.923828125 441.624023438 794.923828125 c 0
 578.680664062 794.923828125 690.35546875 683.249023438 690.35546875 546.193359375 c 0
 690.35546875 409.13671875 578.680664062 297.461914062 441.624023438 297.461914062 c 0
614.212890625 236.547851562 m 2
 756.344726562 236.547851562 873.096679688 119.796875 873.096679688 -22.3349609375 c 2
 873.096679688 -103.553710938 l 2
 873.096679688 -154.314453125 832.487304688 -194.923828125 781.725585938 -194.923828125 c 2
 101.522460938 -194.923828125 l 2
 50.76171875 -194.923828125 10.15234375 -154.314453125 10.15234375 -103.553710938 c 2
 10.15234375 -22.3349609375 l 2
 10.15234375 119.796875 126.903320312 236.547851562 269.03515625 236.547851562 c 2
 299.4921875 236.547851562 l 2
 345.177734375 216.244140625 390.86328125 206.091796875 441.624023438 206.091796875 c 0
 492.385742188 206.091796875 543.147460938 216.244140625 583.755859375 236.547851562 c 2
 614.212890625 236.547851562 l 2
EndSplineSet
EndChar

StartChar: play
Encoding: 57362 57362 18
Width: 1000
VWidth: 0
HStem: -197.268 81.9668<371.262 628.738> 715.301 81.9668<371.262 628.738>
VStem: 2.73242 81.9668<171.262 428.738> 915.301 81.9668<171.262 428.738>
LayerCount: 2
Fore
SplineSet
720.125 307.453125 m 1
 375.862304688 591.076171875 l 1
 375.862304688 23.8291015625 l 1
 720.125 307.453125 l 1
84.69921875 300 m 0
 84.69921875 529.369140625 270.626953125 715.30078125 500 715.30078125 c 0
 729.369140625 715.30078125 915.30078125 529.373046875 915.30078125 300 c 0
 915.30078125 70.630859375 729.373046875 -115.30078125 500 -115.30078125 c 0
 270.630859375 -115.30078125 84.69921875 70.626953125 84.69921875 300 c 0
2.732421875 300 m 0
 2.732421875 25.3701171875 225.3671875 -197.267578125 500 -197.267578125 c 0
 774.629882812 -197.267578125 997.267578125 25.3671875 997.267578125 300 c 0
 997.267578125 574.629882812 774.6328125 797.267578125 500 797.267578125 c 0
 225.370117188 797.267578125 2.732421875 574.6328125 2.732421875 300 c 0
EndSplineSet
EndChar

StartChar: add
Encoding: 57363 57363 19
Width: 1000
VWidth: 0
HStem: -190.909 36.3633<163.637 963.637> -63.6367 36.3643<36.3633 127.272> 209.091 36.3633<345.46 545.454 581.818 781.812> 609.091 36.3633<163.637 854.546 890.909 963.637> 754.546 36.3633<36.3633 854.546>
VStem: 0 36.3633<-27.2725 754.546> 127.272 36.3643<-154.546 -63.6367 -27.2725 609.091> 545.454 36.3643<9.09675 209.091 245.454 445.448> 854.546 36.3633<645.454 754.546> 963.637 36.3633<-154.546 609.091>
LayerCount: 2
Fore
SplineSet
890.909179688 645.454101562 m 1
 1000 645.454101562 l 1
 1000 -190.909179688 l 1
 127.272460938 -190.909179688 l 1
 127.272460938 -63.63671875 l 1
 0 -63.63671875 l 1
 0 790.909179688 l 1
 890.909179688 790.909179688 l 1
 890.909179688 645.454101562 l 1
36.36328125 -27.2724609375 m 1
 127.272460938 -27.2724609375 l 1
 127.272460938 645.454101562 l 1
 854.545898438 645.454101562 l 1
 854.545898438 754.545898438 l 1
 36.36328125 754.545898438 l 1
 36.36328125 -27.2724609375 l 1
963.63671875 -154.545898438 m 1
 963.63671875 609.090820312 l 1
 890.909179688 609.090820312 l 1
 163.63671875 609.090820312 l 1
 163.63671875 -63.63671875 l 1
 163.63671875 -154.545898438 l 1
 963.63671875 -154.545898438 l 1
763.63671875 245.454101562 m 2
 773.690429688 245.454101562 781.818359375 237.327148438 781.818359375 227.272460938 c 0
 781.818359375 217.217773438 773.690429688 209.090820312 763.63671875 209.090820312 c 2
 581.818359375 209.090820312 l 1
 581.818359375 27.2724609375 l 2
 581.818359375 17.2177734375 573.690429688 9.0908203125 563.63671875 9.0908203125 c 0
 553.58203125 9.0908203125 545.454101562 17.2177734375 545.454101562 27.2724609375 c 2
 545.454101562 209.090820312 l 1
 363.63671875 209.090820312 l 2
 353.58203125 209.090820312 345.454101562 217.217773438 345.454101562 227.272460938 c 0
 345.454101562 237.327148438 353.58203125 245.454101562 363.63671875 245.454101562 c 2
 545.454101562 245.454101562 l 1
 545.454101562 427.272460938 l 2
 545.454101562 437.327148438 553.58203125 445.454101562 563.63671875 445.454101562 c 0
 573.690429688 445.454101562 581.818359375 437.327148438 581.818359375 427.272460938 c 2
 581.818359375 245.454101562 l 1
 763.63671875 245.454101562 l 2
EndSplineSet
EndChar

StartChar: trash
Encoding: 57364 57364 20
Width: 1000
VWidth: 0
HStem: -200 55.5098<223.948 776.052> 600.575 55.5107<56.0108 133.224 188.733 291.118 346.628 653.372 708.882 811.472 866.776 943.989> 744.49 55.5098<358.338 641.662>
VStem: 133.224 55.5098<-109.276 600.575> 291.118 55.5098<-13.6445 469.935 656.086 732.781> 472.245 55.5098<-44.2663 500.363> 653.372 55.5098<-13.6445 469.935 656.086 732.781> 811.472 55.3047<-109.276 600.575>
LayerCount: 2
Fore
SplineSet
916.940429688 656.0859375 m 2
 932.360351562 656.0859375 944.6953125 643.75 944.6953125 628.331054688 c 0
 944.6953125 612.911132812 932.360351562 600.575195312 916.940429688 600.575195312 c 2
 866.776367188 600.575195312 l 1
 866.776367188 -51.5625 l 2
 866.776367188 -133.387695312 800.1640625 -200 718.338867188 -200 c 2
 281.661132812 -200 l 2
 199.8359375 -200 133.223632812 -133.387695312 133.223632812 -51.5625 c 2
 133.223632812 600.575195312 l 1
 83.0595703125 600.575195312 l 2
 67.6396484375 600.575195312 55.3046875 612.911132812 55.3046875 628.331054688 c 0
 55.3046875 643.75 67.6396484375 656.0859375 83.0595703125 656.0859375 c 2
 291.118164062 656.0859375 l 1
 291.118164062 690.0078125 l 2
 291.118164062 750.658203125 340.4609375 800 401.110351562 800 c 2
 598.889648438 800 l 2
 659.5390625 800 708.881835938 750.658203125 708.881835938 690.0078125 c 2
 708.881835938 656.0859375 l 1
 916.940429688 656.0859375 l 2
346.627929688 690.0078125 m 2
 346.627929688 656.0859375 l 1
 653.372070312 656.0859375 l 1
 653.372070312 690.0078125 l 2
 653.372070312 720.024414062 628.90625 744.490234375 598.889648438 744.490234375 c 2
 401.110351562 744.490234375 l 2
 371.09375 744.490234375 346.627929688 720.024414062 346.627929688 690.0078125 c 2
811.266601562 -51.5625 m 1
 811.471679688 -51.5625 l 1
 811.471679688 600.575195312 l 1
 188.733398438 600.575195312 l 1
 188.733398438 -51.5625 l 2
 188.733398438 -102.754882812 230.46875 -144.490234375 281.661132812 -144.490234375 c 2
 718.338867188 -144.490234375 l 2
 769.53125 -144.490234375 811.266601562 -102.754882812 811.266601562 -51.5625 c 1
500 -44.9833984375 m 0
 484.581054688 -44.9833984375 472.245117188 -32.4423828125 472.245117188 -17.0234375 c 2
 472.245117188 473.314453125 l 2
 472.245117188 488.733398438 484.581054688 501.069335938 500 501.069335938 c 0
 515.418945312 501.069335938 527.754882812 488.733398438 527.754882812 473.314453125 c 2
 527.754882812 -17.228515625 l 2
 527.754882812 -32.6484375 515.418945312 -44.9833984375 500 -44.9833984375 c 0
318.873046875 -14.3505859375 m 0
 303.659179688 -14.3505859375 291.118164062 -2.0146484375 291.118164062 13.404296875 c 2
 291.118164062 442.88671875 l 2
 291.118164062 458.305664062 303.454101562 470.641601562 318.873046875 470.641601562 c 0
 334.29296875 470.641601562 346.627929688 458.305664062 346.627929688 442.88671875 c 2
 346.627929688 13.404296875 l 2
 346.627929688 -2.0146484375 334.29296875 -14.3505859375 318.873046875 -14.3505859375 c 0
681.126953125 -14.3505859375 m 0
 665.70703125 -14.3505859375 653.372070312 -2.0146484375 653.372070312 13.404296875 c 2
 653.372070312 442.88671875 l 2
 653.372070312 458.305664062 665.70703125 470.641601562 681.126953125 470.641601562 c 0
 696.545898438 470.641601562 708.881835938 458.305664062 708.881835938 442.88671875 c 2
 708.881835938 13.404296875 l 2
 708.881835938 -2.0146484375 696.545898438 -14.3505859375 681.126953125 -14.3505859375 c 0
EndSplineSet
EndChar

StartChar: edit
Encoding: 57365 57365 21
Width: 1000
VWidth: 0
VStem: 942.472 57.5283<499.045 661.373>
LayerCount: 2
Fore
SplineSet
935.2265625 735.220703125 m 0
 976.98828125 693.671875 1000 638.274414062 1000 579.25390625 c 0
 1000 520.233398438 976.98828125 464.8359375 935.2265625 423.07421875 c 2
 362.922851562 -149.016601562 l 2
 357.596679688 -154.556640625 350.138671875 -157.540039062 342.681640625 -157.540039062 c 0
 335.223632812 -157.540039062 327.766601562 -154.34375 322.439453125 -149.016601562 c 2
 91.8984375 81.5244140625 l 1
 62.2822265625 -137.510742188 l 1
 213.987304688 -117.056640625 l 2
 229.754882812 -114.92578125 244.243164062 -126.004882812 246.374023438 -141.772460938 c 0
 248.504882812 -157.540039062 237.424804688 -172.028320312 221.658203125 -174.159179688 c 2
 32.4521484375 -199.727539062 l 2
 31.173828125 -199.940429688 29.8955078125 -199.940429688 28.6171875 -199.940429688 c 0
 21.16015625 -199.940429688 13.7021484375 -196.744140625 8.3759765625 -191.41796875 c 0
 2.1962890625 -185.23828125 -0.9990234375 -176.290039062 0.279296875 -167.340820312 c 2
 42.6796875 146.723632812 l 2
 43.5322265625 152.90234375 46.3017578125 158.655273438 50.7763671875 163.129882812 c 2
 623.080078125 735.220703125 l 2
 709.16015625 821.513671875 849.147460938 821.513671875 935.2265625 735.220703125 c 0
634.16015625 664.907226562 m 1
 111.927734375 142.674804688 l 1
 208.021484375 46.5810546875 l 1
 730.25390625 568.813476562 l 1
 634.16015625 664.907226562 l 1
342.89453125 -88.0791015625 m 1
 865.126953125 434.153320312 l 1
 771.1640625 528.1171875 l 1
 248.930664062 5.884765625 l 1
 342.89453125 -88.0791015625 l 1
905.184570312 475.276367188 m 1
 929.260742188 504.466796875 942.471679688 540.688476562 942.471679688 579.25390625 c 0
 942.471679688 622.932617188 925.638671875 664.055664062 894.744140625 694.737304688 c 0
 863.848632812 725.418945312 822.939453125 742.46484375 779.260742188 742.46484375 c 0
 740.908203125 742.46484375 704.47265625 729.254882812 675.282226562 705.177734375 c 1
 905.184570312 475.276367188 l 1
EndSplineSet
EndChar

StartChar: close
Encoding: 57366 57366 22
Width: 1000
VWidth: 0
LayerCount: 2
Fore
SplineSet
988.169921875 788.16796875 m 0
 1003.94335938 772.392578125 1003.94335938 746.81640625 988.169921875 731.04296875 c 2
 68.9609375 -188.166015625 l 2
 61.072265625 -196.056640625 50.734375 -200 40.396484375 -200 c 0
 30.05859375 -200 19.71875 -196.05859375 11.83203125 -188.16796875 c 0
 -3.943359375 -172.392578125 -3.943359375 -146.81640625 11.83203125 -131.041015625 c 2
 931.04296875 788.16796875 l 2
 946.818359375 803.943359375 972.39453125 803.943359375 988.169921875 788.16796875 c 0
988.16796875 -131.04296875 m 2
 1003.94140625 -146.818359375 1003.94140625 -172.39453125 988.169921875 -188.171875 c 0
 980.28515625 -196.05859375 969.9453125 -200.001953125 959.607421875 -200.001953125 c 0
 949.26953125 -200.001953125 938.9296875 -196.05859375 931.04296875 -188.169921875 c 2
 11.83203125 731.041015625 l 2
 -3.943359375 746.81640625 -3.943359375 772.392578125 11.83203125 788.166015625 c 0
 27.60546875 803.94140625 53.18359375 803.94140625 68.95703125 788.166015625 c 2
 988.16796875 -131.04296875 l 2
EndSplineSet
EndChar

StartChar: check
Encoding: 57367 57367 23
Width: 1000
VWidth: 0
LayerCount: 2
Fore
SplineSet
985.35546875 652.546875 m 0
 1004.88085938 633.01953125 1004.8828125 601.361328125 985.35546875 581.8359375 c 2
 350.96875 -52.55078125 l 2
 331.45703125 -72.0625 299.77734375 -72.076171875 280.2578125 -52.55078125 c 2
 14.64453125 213.05859375 l 2
 -4.8828125 232.5859375 -4.8828125 264.2421875 14.64453125 283.767578125 c 0
 34.173828125 303.29296875 65.830078125 303.294921875 85.35546875 283.767578125 c 2
 315.61328125 53.509765625 l 1
 914.64453125 652.546875 l 2
 934.173828125 672.07421875 965.830078125 672.07421875 985.35546875 652.546875 c 0
EndSplineSet
EndChar
